<svg width="603" height="492" viewBox="0 0 603 492" fill="none" xmlns="http://www.w3.org/2000/svg">
<path d="M500.994 89.2842H498.899V491.26H500.994V89.2842Z" fill="#46B8E5"/>
<path d="M545.969 491.26L516.355 331.704H499.947H483.538L453.926 491.26" stroke="#46B8E5" stroke-miterlimit="10"/>
<path d="M525.533 115.612V204.512" stroke="#46B8E5" stroke-width="0.5" stroke-miterlimit="10"/>
<path d="M530.49 206.167C530.49 207.149 530.199 208.108 529.654 208.925C529.11 209.741 528.336 210.377 527.43 210.753C526.524 211.128 525.528 211.227 524.567 211.035C523.605 210.844 522.722 210.371 522.029 209.677C521.336 208.982 520.864 208.098 520.672 207.135C520.481 206.172 520.579 205.174 520.954 204.267C521.33 203.36 521.965 202.585 522.78 202.04C523.595 201.494 524.553 201.203 525.534 201.203C526.184 201.203 526.829 201.332 527.43 201.581C528.032 201.83 528.578 202.196 529.038 202.657C529.499 203.118 529.864 203.665 530.113 204.267C530.362 204.87 530.49 205.515 530.49 206.167Z" fill="#46B8E5"/>
<path d="M533.352 45.6699H466.542L434.33 140.675H499.947H565.563L533.352 45.6699Z" fill="#46B8E5"/>
<path d="M269.545 77.7275H428.307C431.237 77.7275 434.138 78.3048 436.844 79.4264C439.551 80.548 442.01 82.1919 444.082 84.2643C446.153 86.3367 447.797 88.797 448.918 91.5047C450.039 94.2124 450.616 97.1145 450.616 100.045V419.236C450.616 425.155 448.266 430.832 444.082 435.017C439.898 439.203 434.224 441.554 428.307 441.554H269.545C263.628 441.554 257.954 439.203 253.77 435.017C249.587 430.832 247.236 425.155 247.236 419.236V100.045C247.236 97.1145 247.813 94.2124 248.934 91.5047C250.056 88.797 251.699 86.3367 253.77 84.2643C255.842 82.1919 258.301 80.548 261.008 79.4264C263.714 78.3048 266.615 77.7275 269.545 77.7275Z" fill="white" stroke="black" stroke-width="0.5" stroke-miterlimit="10"/>
<path d="M442.724 107.585H255.127V402.963H442.724V107.585Z" fill="#3B6000"/>
<path d="M376.73 97.6673H321.122C320.77 97.6673 320.422 97.598 320.097 97.4634C319.772 97.3287 319.477 97.1314 319.228 96.8826C318.979 96.6337 318.782 96.3384 318.647 96.0133C318.513 95.6882 318.443 95.3398 318.443 94.9879C318.443 94.636 318.513 94.2876 318.647 93.9625C318.782 93.6375 318.979 93.3421 319.228 93.0933C319.477 92.8445 319.772 92.6471 320.097 92.5125C320.422 92.3779 320.77 92.3086 321.122 92.3086H376.73C377.44 92.3086 378.121 92.5909 378.624 93.0933C379.126 93.5958 379.408 94.2773 379.408 94.9879C379.408 95.6985 379.126 96.38 378.624 96.8825C378.121 97.385 377.44 97.6673 376.73 97.6673Z" fill="black"/>
<path d="M341.218 408.805H357.502C359.752 408.805 361.91 409.699 363.501 411.291C365.092 412.883 365.986 415.041 365.986 417.293V427.017C365.986 429.269 365.092 431.428 363.501 433.019C361.91 434.611 359.752 435.505 357.502 435.505H341.218C338.968 435.505 336.81 434.611 335.218 433.019C333.627 431.428 332.733 429.269 332.733 427.017V417.293C332.733 415.042 333.627 412.883 335.218 411.291C336.81 409.699 338.968 408.805 341.218 408.805Z" fill="black"/>
<path d="M450.616 127.859H451.36C452.001 127.859 452.615 128.114 453.069 128.567C453.522 129.021 453.776 129.636 453.776 130.277V158.703C453.776 159.344 453.522 159.959 453.069 160.412C452.615 160.866 452.001 161.12 451.36 161.12H450.616V127.859Z" fill="black"/>
<path d="M246.918 161.12H246.174C245.533 161.12 244.919 160.865 244.466 160.412C244.012 159.959 243.758 159.344 243.758 158.703V130.277C243.758 129.636 244.012 129.021 244.466 128.567C244.919 128.114 245.533 127.859 246.174 127.859H246.918V161.12Z" fill="black"/>
<path d="M450.616 170.119H451.36C451.677 170.119 451.991 170.182 452.285 170.303C452.578 170.425 452.844 170.603 453.069 170.827C453.293 171.052 453.471 171.318 453.592 171.612C453.714 171.905 453.776 172.219 453.776 172.537V200.963C453.776 201.604 453.522 202.219 453.069 202.672C452.615 203.125 452.001 203.38 451.36 203.38H450.616V170.119Z" fill="black"/>
<path d="M205.66 114.109C205.66 114.109 226.916 125.655 231.743 129.521C238.765 135.143 236.827 145.908 236.827 145.908H209.494L189.458 135.638L205.66 114.109Z" fill="#F39C94"/>
<path d="M111.912 34.9219C102.524 38.4477 94.7707 45.3227 90.1448 54.2237C82.7241 68.9475 98.5549 70.556 98.5549 70.556C98.5549 70.556 79.3847 99.0139 95.7103 104.953C112.036 110.892 129.969 91.0951 129.969 91.0951L131.577 41.9745L111.912 34.9219Z" fill="black"/>
<path d="M104.368 36.0771C104.368 36.0771 101.104 36.257 101.07 40.3664C101.024 45.8724 108.851 49.3059 108.851 49.3059L113.167 46.058L104.368 36.0771Z" fill="#75CFBC"/>
<path d="M53.4873 458.482L57.8504 421.991L94.4109 425.649L87.7082 465.15C87.7082 465.15 60.3361 464.493 53.4873 458.482Z" fill="#F39C94"/>
<path d="M135.649 458.76L134.169 430.947H168.292V464.841C168.292 464.841 142.612 466.091 135.649 458.76Z" fill="#F39C94"/>
<path d="M49.6241 153.1C50.721 150.418 62.2375 132.963 62.2375 132.963L87.2815 143.123C87.2815 143.123 80.4163 151.629 73.7563 161.067C73.7496 161.076 73.7399 161.083 73.7329 161.093L87.2815 197.905L78.0195 209.785C78.0195 209.785 43.5308 170.29 49.6241 153.1Z" fill="#F39C94"/>
<path d="M93.679 442.108C85.7983 444.871 60.531 442.595 54.4375 439.06C60.1857 391.975 66.9604 336.298 72.2302 321.754L82.3859 257.32C82.3859 257.32 82.1721 233.467 85.1483 221.557C88.5606 207.902 97.457 195.223 97.457 195.223L168.177 197.008C170.544 202.269 171.722 207.987 171.628 213.755C171.627 223.387 170.856 443.124 170.856 443.124C164.198 445.952 140.605 446.694 131.296 443.124C131.296 443.124 123.786 338.843 131.946 327.139L129.227 252.439L126.78 253.051L113.816 326.253L93.679 442.108Z" fill="#52CAFC"/>
<path d="M93.0509 213.526C91.5574 218.646 90.3802 223.852 89.526 229.116C88.4653 237.371 88.2842 245.715 88.9858 254.008L78.3331 322.594L75.4266 324.945C75.4266 324.945 63.3062 382.108 58.6064 436.631" stroke="black" stroke-width="0.5" stroke-linecap="round" stroke-linejoin="round"/>
<path d="M126.63 251.325L127.495 243.903L135.04 239.695L139.616 208.763" stroke="black" stroke-width="0.5" stroke-linecap="round" stroke-linejoin="round"/>
<path d="M135.597 251.635L138.874 326.739L134.298 329.522H137.266C137.266 329.522 129.969 369.363 137.143 441.993" stroke="black" stroke-width="0.5" stroke-linecap="round" stroke-linejoin="round"/>
<path d="M157.348 91.7139C157.348 91.7139 166.981 93.8536 171.797 95.1276C178.888 97.0036 209.989 116.213 209.989 116.213C209.989 116.213 204.836 136.992 189.725 147.355L172.406 138.531C173.351 142.041 173.954 145.634 174.206 149.261C174.206 153.2 170.273 159.074 166.191 166.328C166.739 173.887 166.817 180.566 168.177 197.008C159.894 203.025 111.13 202.822 97.457 195.223C96.8613 189.149 102.502 175.562 104.525 168.644C102.502 157.332 98.8429 140.917 98.8429 140.917L83.1002 162.145C83.1002 162.145 63.7284 151.065 54.4375 143.651C54.4375 143.651 75.9083 106.34 81.159 102.838C86.4097 99.336 107.816 92.3234 107.816 92.3234L157.348 91.7139Z" fill="#94B945"/>
<path d="M140.358 69.9378L143.327 87.2599L157.348 91.7139C157.348 91.7139 156.172 106.226 138.38 107.211C119.555 108.253 107.816 92.3235 107.816 92.3235L119.76 87.4468L119.967 60.5264L140.358 69.9378Z" fill="#F39C94"/>
<path d="M143.132 86.1266C120.229 95.767 121.999 62.5165 121.999 62.5165L119.971 60.5264L140.355 69.9342L143.132 86.1266Z" fill="#EC8B7B"/>
<path d="M86.7018 197.065H99.5928C99.5928 197.065 107.002 200.259 108.035 200.719C109.069 201.178 114.121 208.012 114.58 208.816C115.039 209.62 113.776 211.688 111.595 210.999C110.122 210.318 108.766 209.409 107.576 208.306C109.562 210.711 111.967 213.923 112.329 214.377C113.032 215.258 111.402 217.594 109.569 216.838C109.828 217.717 108.17 219.434 106.543 218.867C104.361 218.178 99.6759 213.607 99.6759 213.607L96.4124 212.819C97.6538 213.935 98.7571 214.941 98.965 215.172C100.585 217.001 102.069 218.946 103.405 220.992C103.902 222.083 102.237 223.94 100.171 223.021C98.2926 221.922 96.5735 220.571 95.0612 219.005L90.0669 216.839C87.1888 217.424 84.1963 216.866 81.7217 215.284C79.2471 213.702 77.4842 211.219 76.8057 208.361L86.7018 197.065Z" fill="#F39C94"/>
<path d="M109.47 216.217C109.47 216.217 103.935 209.35 103.224 208.793C102.513 208.236 94.2881 206.04 94.2881 206.04" stroke="black" stroke-width="0.5" stroke-linecap="round" stroke-linejoin="round"/>
<path d="M107.398 207.866C107.398 207.866 105.141 204.989 104.924 204.834C104.708 204.68 96.3594 202.298 96.3594 202.298" stroke="black" stroke-width="0.5" stroke-linecap="round" stroke-linejoin="round"/>
<path d="M95.9887 212.505L92.4639 210.433" stroke="black" stroke-width="0.5" stroke-linecap="round" stroke-linejoin="round"/>
<path d="M136.96 458.339C136.96 458.339 130.369 467.48 132.702 491.357H221.171C221.171 491.357 224.353 479.153 215.867 472.998C207.381 466.843 183.832 460.476 183.832 460.476L169.636 450.32C162.045 450.108 156.074 453.481 152.783 458.339H136.96Z" fill="#94B945"/>
<path d="M128.897 491.351C128.897 491.351 128.815 483.514 132.225 479.606L221.741 485.479C222.454 486.263 222.977 487.202 223.269 488.221C223.561 489.24 223.615 490.314 223.426 491.357L128.897 491.351Z" fill="black"/>
<path d="M53.4878 458.482C53.4878 458.482 43.9197 467.623 46.2534 491.5H116.713C116.713 491.5 118.727 473.883 109.767 468.442C102.329 463.926 98.3112 461.371 98.3112 461.371L90.4118 453.502C79.9702 447.081 65.3805 450.58 58.7723 458.482H53.4878Z" fill="#94B945"/>
<path d="M43.3635 491.493C43.3635 491.493 43.2837 483.331 45.9802 479.749L116.876 485.621C117.58 486.411 118.093 487.351 118.378 488.37C118.662 489.389 118.711 490.459 118.519 491.5L43.3635 491.493Z" fill="black"/>
<path d="M156.065 34.1528C161.753 46.7379 158.034 78.5836 146.767 79.3496C126.589 80.7214 109.137 61.5116 113.184 39.8434C117.271 17.9607 148.459 17.3257 156.065 34.1528Z" fill="#F39C94"/>
<path d="M158.394 43.8974C158.394 43.8974 172.11 36.7687 171.586 26.7152C171.063 16.6617 156.513 19.594 156.513 19.594C156.513 19.594 163.727 5.57338 150.864 0.954228C141.803 -2.29988 124.822 12.9972 124.822 12.9972C124.822 12.9972 115.19 7.87015 108.387 11.6357C89.6848 21.9883 109.302 47.1363 109.302 47.1363L118.131 50.8585C118.131 50.8585 130.933 53.8512 130.829 38.9804C130.829 38.9804 152.016 45.5478 156.1 37.7844C157.044 39.7502 157.812 41.7959 158.394 43.8974Z" fill="black"/>
<path d="M119.857 49.7977C118.618 46.7938 114.018 40.4297 109.307 42.6102C103.149 45.4608 105.049 56.8921 111.923 60.5377C116.59 63.0123 123.155 57.7878 119.857 49.7977Z" fill="#F39C94"/>
<path d="M280.12 144H187.754C184.371 144 181.127 145.344 178.736 147.737C176.344 150.13 175 153.375 175 156.76V224.364C175 227.748 176.344 230.994 178.736 233.387C181.128 235.78 184.372 237.124 187.754 237.124H280.12C283.502 237.124 286.746 235.78 289.138 233.387C291.53 230.994 292.874 227.748 292.874 224.364V156.76C292.874 153.376 291.53 150.13 289.138 147.737C286.746 145.344 283.502 144 280.12 144Z" fill="#52CAFC"/>
<path d="M222.027 127.859C222.027 127.859 200.095 133.824 193.993 134.978C187.892 136.133 177.421 147.434 177.421 147.434C176.127 149.894 174.961 152.418 173.925 154.997C173.863 155.803 172.282 163.738 172.608 164.606C172.933 165.474 175.501 165.857 176.399 164.183C177.464 161.467 178.366 158.691 179.1 155.868L182.396 151.3C181.663 153.694 180.761 155.638 180.739 156.116C180.703 156.913 179.962 166.093 179.977 167.231C179.997 168.798 183.263 168.893 184.051 167.551C184.2 167.207 184.308 166.846 184.374 166.476C184.919 166.783 185.55 166.903 186.17 166.816C186.789 166.729 187.363 166.441 187.803 165.996C188.449 164.196 188.903 162.333 189.158 160.437C189.036 161.783 189.038 163.137 189.165 164.483C189.536 165.736 192.643 165.333 193.138 163.601C193.434 162.566 194.155 158.431 194.477 155.906C195.207 155.658 204.127 152.479 205.867 144.49H231.427L222.027 127.859Z" fill="#F39C94"/>
<path d="M184.039 166.237C183.868 166.17 183.721 166.051 183.621 165.896C183.521 165.742 183.472 165.559 183.481 165.375C183.465 164.679 184.543 156.363 184.543 156.363L187.078 149.218" stroke="black" stroke-width="0.5" stroke-linecap="round" stroke-linejoin="round"/>
<path d="M191.591 150.146L189.457 155.342L189.148 159.425" stroke="black" stroke-width="0.5" stroke-linecap="round" stroke-linejoin="round"/>
<path d="M204.713 132.431L222.027 127.86C222.027 127.86 227.222 127.06 232.251 134.566" stroke="black" stroke-width="0.5" stroke-linecap="round" stroke-linejoin="round"/>
<path d="M55.8857 155.682C55.8857 155.682 65.8625 151.475 72.7885 160.467" stroke="black" stroke-width="0.5" stroke-linecap="round" stroke-linejoin="round"/>
<path d="M171.978 136.71C171.978 136.71 168.433 125.245 167.608 122.44C167.089 120.556 166.785 118.619 166.701 116.666" stroke="black" stroke-width="0.5" stroke-linecap="round" stroke-linejoin="round"/>
<path d="M99.2969 139.969L105.233 131.246" stroke="black" stroke-width="0.5" stroke-linecap="round" stroke-linejoin="round"/>
<path d="M172.507 460.997C178.328 460.428 185.707 460.099 192.772 463.145C193.424 455.707 176.176 455.677 172.507 460.997ZM172.507 460.997C178.402 460.502 193.409 456.295 191.801 450.81C190.923 447.816 184.71 445.689 177.825 449.779C171.752 453.386 168.557 460.923 168.557 460.923C168.557 460.923 156.807 462.656 157.426 476.761" stroke="black" stroke-width="0.5" stroke-linecap="round" stroke-linejoin="round"/>
<path d="M89.5596 463.192C91.8938 462.435 94.3619 462.181 96.8011 462.448C99.2404 462.714 101.596 463.495 103.711 464.738C100.098 452.839 90.0195 462.774 89.5596 463.192ZM89.5596 463.192C72.9043 451.579 62.7626 467.894 68.0395 467.399C73.3164 466.904 86.0965 463.934 86.0965 463.934C86.0965 463.934 74.8418 471.193 75.0274 478.184" stroke="black" stroke-width="0.5" stroke-linecap="round" stroke-linejoin="round"/>
<path d="M292.107 59.669C292.107 60.6796 291.808 61.6674 291.246 62.5077C290.685 63.3479 289.888 64.0028 288.954 64.3895C288.021 64.7762 286.994 64.8774 286.004 64.6803C285.013 64.4831 284.103 63.9965 283.388 63.2819C282.674 62.5674 282.188 61.6569 281.991 60.6658C281.794 59.6747 281.895 58.6473 282.281 57.7137C282.668 56.7801 283.323 55.9821 284.162 55.4207C285.002 54.8592 285.99 54.5596 287 54.5596C287.671 54.5596 288.335 54.6917 288.954 54.9485C289.574 55.2053 290.137 55.5816 290.611 56.0561C291.086 56.5305 291.462 57.0938 291.718 57.7137C291.975 58.3336 292.107 58.998 292.107 59.669Z" fill="#84A6CB"/>
<path d="M315.526 59.669C315.526 60.6796 315.227 61.6674 314.665 62.5077C314.104 63.3479 313.307 64.0028 312.373 64.3895C311.44 64.7762 310.413 64.8774 309.422 64.6803C308.432 64.4831 307.522 63.9965 306.807 63.2819C306.093 62.5673 305.607 61.6569 305.41 60.6658C305.213 59.6747 305.314 58.6473 305.7 57.7137C306.087 56.7801 306.741 55.9821 307.581 55.4207C308.421 54.8592 309.409 54.5596 310.419 54.5596C311.09 54.5596 311.754 54.6917 312.373 54.9485C312.993 55.2053 313.556 55.5816 314.03 56.0561C314.505 56.5305 314.881 57.0938 315.137 57.7137C315.394 58.3336 315.526 58.998 315.526 59.669Z" fill="#84A6CB"/>
<path d="M338.945 59.669C338.945 60.6796 338.646 61.6674 338.084 62.5077C337.523 63.3479 336.726 64.0028 335.792 64.3895C334.859 64.7763 333.832 64.8775 332.841 64.6803C331.851 64.4832 330.941 63.9965 330.226 63.282C329.512 62.5674 329.026 61.657 328.829 60.6659C328.632 59.6747 328.733 58.6474 329.119 57.7137C329.506 56.7801 330.16 55.9821 331 55.4207C331.84 54.8592 332.828 54.5596 333.838 54.5596C334.508 54.5596 335.173 54.6917 335.792 54.9485C336.412 55.2053 336.975 55.5816 337.449 56.0561C337.924 56.5305 338.3 57.0938 338.556 57.7137C338.813 58.3336 338.945 58.998 338.945 59.669Z" fill="#84A6CB"/>
<path d="M602 491.324H1" stroke="black" stroke-linecap="round" stroke-linejoin="round"/>
<path d="M563.226 224.474L495.539 224.463C494.609 224.463 493.718 224.094 493.06 223.436C492.403 222.778 492.034 221.886 492.034 220.956L492.041 177.202C492.041 176.742 492.132 176.286 492.308 175.86C492.485 175.435 492.743 175.048 493.068 174.723C493.394 174.397 493.78 174.139 494.206 173.963C494.631 173.787 495.087 173.696 495.547 173.696L563.234 173.707C563.694 173.707 564.15 173.798 564.575 173.974C565 174.15 565.387 174.409 565.712 174.734C566.038 175.06 566.296 175.446 566.472 175.872C566.648 176.297 566.738 176.753 566.738 177.214L566.731 220.968C566.731 221.429 566.64 221.885 566.464 222.31C566.288 222.735 566.03 223.122 565.704 223.447C565.379 223.773 564.992 224.031 564.567 224.207C564.142 224.383 563.686 224.474 563.226 224.474Z" fill="white" stroke="black" stroke-width="0.341757" stroke-linecap="round" stroke-linejoin="round"/>
<path d="M534.106 196.994L566.732 220.377" stroke="black" stroke-width="0.341757" stroke-linecap="round" stroke-linejoin="round"/>
<path d="M492.034 220.377L525.576 196.93" stroke="black" stroke-width="0.341757" stroke-linecap="round" stroke-linejoin="round"/>
<path d="M497.896 177.404L528.22 198.793C528.707 199.137 529.289 199.322 529.886 199.322C530.482 199.322 531.064 199.138 531.552 198.794L561.883 177.414" fill="white"/>
<path d="M497.896 177.404L528.22 198.793C528.707 199.137 529.289 199.322 529.886 199.322C530.482 199.322 531.064 199.138 531.552 198.794L561.883 177.414" stroke="black" stroke-width="0.341757" stroke-linecap="round" stroke-linejoin="round"/>
<path d="M561.883 177.415L534.106 196.993L540.63 201.669L561.883 177.415Z" fill="black"/>
<path d="M497.8 177.415L525.576 196.993L519.053 201.669L497.8 177.415Z" fill="black"/>
<path d="M574.457 175.132C574.457 177.247 573.83 179.314 572.656 181.073C571.481 182.831 569.812 184.202 567.859 185.011C565.905 185.821 563.756 186.032 561.683 185.62C559.609 185.207 557.705 184.189 556.21 182.693C554.715 181.198 553.697 179.292 553.284 177.218C552.872 175.144 553.084 172.994 553.893 171.04C554.702 169.086 556.072 167.416 557.83 166.241C559.587 165.066 561.654 164.438 563.768 164.438C566.603 164.438 569.322 165.565 571.326 167.571C573.331 169.576 574.457 172.296 574.457 175.132Z" fill="#94B945"/>
<path d="M562.665 180.166H562.655C562.513 180.165 562.374 180.133 562.246 180.073C562.117 180.014 562.003 179.928 561.911 179.82L557.837 175.108C557.664 174.907 557.578 174.647 557.597 174.383C557.617 174.119 557.74 173.874 557.94 173.701C558.14 173.528 558.4 173.442 558.664 173.461C558.928 173.48 559.173 173.603 559.346 173.804L562.68 177.661L568.238 171.485C568.326 171.388 568.432 171.308 568.55 171.251C568.668 171.195 568.796 171.162 568.927 171.155C569.058 171.148 569.189 171.167 569.313 171.21C569.436 171.254 569.55 171.322 569.648 171.409C569.745 171.497 569.824 171.603 569.881 171.722C569.937 171.84 569.969 171.968 569.976 172.099C569.983 172.23 569.964 172.361 569.92 172.485C569.876 172.609 569.808 172.722 569.72 172.819L563.405 179.835C563.312 179.939 563.198 180.023 563.07 180.08C562.943 180.137 562.805 180.166 562.665 180.166Z" fill="white"/>
<path d="M487.939 242H351.799C341.417 242 333 250.42 333 260.807V360.451C333 370.837 341.417 379.257 351.799 379.257H487.939C498.321 379.257 506.738 370.837 506.738 360.451V260.807C506.738 250.42 498.321 242 487.939 242Z" fill="#96BB47"/>
<path d="M209.14 180H215.08V201H209.14V180ZM201.04 201H195.1V180H201.04V201ZM209.56 192.81H200.62V187.89H209.56V192.81ZM227.52 201.27C225.6 201.27 223.92 200.91 222.48 200.19C221.06 199.45 219.95 198.45 219.15 197.19C218.37 195.91 217.98 194.46 217.98 192.84C217.98 191.22 218.36 189.78 219.12 188.52C219.9 187.24 220.97 186.25 222.33 185.55C223.69 184.83 225.22 184.47 226.92 184.47C228.52 184.47 229.98 184.8 231.3 185.46C232.62 186.1 233.67 187.05 234.45 188.31C235.23 189.57 235.62 191.1 235.62 192.9C235.62 193.1 235.61 193.33 235.59 193.59C235.57 193.85 235.55 194.09 235.53 194.31H222.66V191.31H232.5L230.34 192.15C230.36 191.41 230.22 190.77 229.92 190.23C229.64 189.69 229.24 189.27 228.72 188.97C228.22 188.67 227.63 188.52 226.95 188.52C226.27 188.52 225.67 188.67 225.15 188.97C224.65 189.27 224.26 189.7 223.98 190.26C223.7 190.8 223.56 191.44 223.56 192.18V193.05C223.56 193.85 223.72 194.54 224.04 195.12C224.38 195.7 224.86 196.15 225.48 196.47C226.1 196.77 226.84 196.92 227.7 196.92C228.5 196.92 229.18 196.81 229.74 196.59C230.32 196.35 230.89 195.99 231.45 195.51L234.45 198.63C233.67 199.49 232.71 200.15 231.57 200.61C230.43 201.05 229.08 201.27 227.52 201.27ZM238.248 201V178.74H243.948V201H238.248ZM247.652 201V178.74H253.352V201H247.652ZM265.217 201.27C263.437 201.27 261.857 200.91 260.477 200.19C259.097 199.47 258.007 198.48 257.207 197.22C256.427 195.94 256.037 194.48 256.037 192.84C256.037 191.2 256.427 189.75 257.207 188.49C258.007 187.23 259.097 186.25 260.477 185.55C261.857 184.83 263.437 184.47 265.217 184.47C266.997 184.47 268.577 184.83 269.957 185.55C271.357 186.25 272.447 187.23 273.227 188.49C274.007 189.75 274.397 191.2 274.397 192.84C274.397 194.48 274.007 195.94 273.227 197.22C272.447 198.48 271.357 199.47 269.957 200.19C268.577 200.91 266.997 201.27 265.217 201.27ZM265.217 196.74C265.877 196.74 266.457 196.59 266.957 196.29C267.477 195.99 267.887 195.55 268.187 194.97C268.487 194.37 268.637 193.66 268.637 192.84C268.637 192.02 268.487 191.33 268.187 190.77C267.887 190.19 267.477 189.75 266.957 189.45C266.457 189.15 265.877 189 265.217 189C264.577 189 263.997 189.15 263.477 189.45C262.977 189.75 262.567 190.19 262.247 190.77C261.947 191.33 261.797 192.02 261.797 192.84C261.797 193.66 261.947 194.37 262.247 194.97C262.567 195.55 262.977 195.99 263.477 196.29C263.997 196.59 264.577 196.74 265.217 196.74Z" fill="white"/>
<path d="M353.24 322V299.6H364.696C367.64 299.6 369.837 300.144 371.288 301.232C372.739 302.299 373.464 303.707 373.464 305.456C373.464 306.608 373.155 307.621 372.536 308.496C371.939 309.349 371.085 310.032 369.976 310.544C368.888 311.035 367.587 311.28 366.072 311.28L366.712 309.744C368.291 309.744 369.667 309.989 370.84 310.48C372.013 310.949 372.92 311.643 373.56 312.56C374.221 313.456 374.552 314.555 374.552 315.856C374.552 317.797 373.763 319.312 372.184 320.4C370.627 321.467 368.344 322 365.336 322H353.24ZM359.512 317.424H364.824C365.912 317.424 366.733 317.243 367.288 316.88C367.864 316.496 368.152 315.92 368.152 315.152C368.152 314.384 367.864 313.819 367.288 313.456C366.733 313.072 365.912 312.88 364.824 312.88H359.064V308.496H363.864C364.931 308.496 365.731 308.315 366.264 307.952C366.797 307.589 367.064 307.045 367.064 306.32C367.064 305.595 366.797 305.061 366.264 304.72C365.731 304.357 364.931 304.176 363.864 304.176H359.512V317.424ZM386.25 322.288C384.351 322.288 382.666 321.904 381.194 321.136C379.722 320.368 378.559 319.312 377.706 317.968C376.874 316.603 376.458 315.045 376.458 313.296C376.458 311.547 376.874 310 377.706 308.656C378.559 307.312 379.722 306.267 381.194 305.52C382.666 304.752 384.351 304.368 386.25 304.368C388.148 304.368 389.834 304.752 391.306 305.52C392.799 306.267 393.962 307.312 394.794 308.656C395.626 310 396.042 311.547 396.042 313.296C396.042 315.045 395.626 316.603 394.794 317.968C393.962 319.312 392.799 320.368 391.306 321.136C389.834 321.904 388.148 322.288 386.25 322.288ZM386.25 317.456C386.954 317.456 387.572 317.296 388.106 316.976C388.66 316.656 389.098 316.187 389.418 315.568C389.738 314.928 389.898 314.171 389.898 313.296C389.898 312.421 389.738 311.685 389.418 311.088C389.098 310.469 388.66 310 388.106 309.68C387.572 309.36 386.954 309.2 386.25 309.2C385.567 309.2 384.948 309.36 384.394 309.68C383.86 310 383.423 310.469 383.082 311.088C382.762 311.685 382.602 312.421 382.602 313.296C382.602 314.171 382.762 314.928 383.082 315.568C383.423 316.187 383.86 316.656 384.394 316.976C384.948 317.296 385.567 317.456 386.25 317.456ZM410.154 304.368C411.498 304.368 412.714 304.645 413.802 305.2C414.89 305.733 415.744 306.565 416.362 307.696C417.002 308.827 417.322 310.288 417.322 312.08V322H411.242V313.072C411.242 311.835 410.986 310.939 410.474 310.384C409.984 309.808 409.29 309.52 408.394 309.52C407.754 309.52 407.168 309.669 406.634 309.968C406.101 310.245 405.685 310.683 405.386 311.28C405.088 311.877 404.938 312.656 404.938 313.616V322H398.858V304.656H404.65V309.584L403.53 308.144C404.192 306.885 405.098 305.947 406.25 305.328C407.402 304.688 408.704 304.368 410.154 304.368ZM420.404 328.496C419.593 328.496 418.825 328.411 418.099 328.24C417.353 328.091 416.713 327.877 416.179 327.6L417.715 323.28C418.27 323.621 418.899 323.792 419.604 323.792C420.137 323.792 420.564 323.611 420.884 323.248C421.225 322.885 421.396 322.309 421.396 321.52V304.656H427.476V321.552C427.476 323.664 426.857 325.349 425.62 326.608C424.382 327.867 422.644 328.496 420.404 328.496ZM424.436 302.736C423.326 302.736 422.43 302.427 421.748 301.808C421.065 301.189 420.724 300.421 420.724 299.504C420.724 298.587 421.065 297.819 421.748 297.2C422.43 296.581 423.326 296.272 424.436 296.272C425.545 296.272 426.441 296.571 427.124 297.168C427.806 297.744 428.148 298.491 428.148 299.408C428.148 300.368 427.806 301.168 427.124 301.808C426.462 302.427 425.566 302.736 424.436 302.736ZM440.094 322.288C438.195 322.288 436.51 321.904 435.038 321.136C433.566 320.368 432.403 319.312 431.549 317.968C430.718 316.603 430.302 315.045 430.302 313.296C430.302 311.547 430.718 310 431.549 308.656C432.403 307.312 433.566 306.267 435.038 305.52C436.51 304.752 438.195 304.368 440.094 304.368C441.992 304.368 443.678 304.752 445.15 305.52C446.643 306.267 447.806 307.312 448.638 308.656C449.47 310 449.886 311.547 449.886 313.296C449.886 315.045 449.47 316.603 448.638 317.968C447.806 319.312 446.643 320.368 445.15 321.136C443.678 321.904 441.992 322.288 440.094 322.288ZM440.094 317.456C440.798 317.456 441.416 317.296 441.95 316.976C442.504 316.656 442.942 316.187 443.262 315.568C443.582 314.928 443.742 314.171 443.742 313.296C443.742 312.421 443.582 311.685 443.262 311.088C442.942 310.469 442.504 310 441.95 309.68C441.416 309.36 440.798 309.2 440.094 309.2C439.411 309.2 438.792 309.36 438.238 309.68C437.704 310 437.267 310.469 436.926 311.088C436.606 311.685 436.446 312.421 436.446 313.296C436.446 314.171 436.606 314.928 436.926 315.568C437.267 316.187 437.704 316.656 438.238 316.976C438.792 317.296 439.411 317.456 440.094 317.456ZM459.998 322.288C458.59 322.288 457.321 322.011 456.19 321.456C455.081 320.901 454.206 320.037 453.566 318.864C452.947 317.669 452.638 316.165 452.638 314.352V304.656H458.718V313.36C458.718 314.704 458.963 315.664 459.454 316.24C459.966 316.816 460.681 317.104 461.598 317.104C462.195 317.104 462.739 316.965 463.23 316.688C463.721 316.411 464.115 315.973 464.414 315.376C464.713 314.757 464.862 313.968 464.862 313.008V304.656H470.942V322H465.15V317.104L466.27 318.48C465.673 319.76 464.809 320.72 463.678 321.36C462.547 321.979 461.321 322.288 459.998 322.288ZM474.858 322V304.656H480.65V309.712L479.786 308.272C480.298 306.971 481.13 306 482.282 305.36C483.434 304.699 484.832 304.368 486.474 304.368V309.84C486.197 309.797 485.952 309.776 485.738 309.776C485.546 309.755 485.333 309.744 485.098 309.744C483.861 309.744 482.858 310.085 482.09 310.768C481.322 311.429 480.938 312.517 480.938 314.032V322H474.858Z" fill="white"/>
</svg>
