<svg width="43" height="43" viewBox="0 0 43 43" fill="none" xmlns="http://www.w3.org/2000/svg">
<circle cx="21.5" cy="21.5" r="21.5" fill="white"/>
<g clip-path="url(#clip0_2002_777)">
<path d="M22.0564 25.4161L19.1769 22.5706L19.2109 22.5366C21.1835 20.3374 22.5892 17.8094 23.4168 15.134H26.7383V12.861H18.8028V10.5938H16.5355V12.861H8.6001V15.117H21.2628C20.4976 17.3049 19.3016 19.3794 17.6692 21.1933C16.6149 20.02 15.742 18.7446 15.0505 17.3956H12.7832C13.6108 19.2434 14.7444 20.9892 16.1614 22.565L10.3969 28.2615L12.001 29.8656L17.6692 24.1974L21.1948 27.723L22.0564 25.4161Z" fill="#46B8E5"/>
<path d="M28.439 19.6631H26.1717L21.0703 33.2667H23.3376L24.6129 29.8658H29.9977L31.273 33.2667H33.5403L28.439 19.6631ZM25.4632 27.5985L27.3054 22.6842L29.1475 27.5985H25.4632Z" fill="#46B8E5"/>
</g>
<defs>
<clipPath id="clip0_2002_777">
<rect width="24.94" height="24.94" fill="white" transform="translate(8.6001 9.45996)"/>
</clipPath>
</defs>
</svg>
