<svg width="20" height="20" viewBox="0 0 20 20" fill="none" xmlns="http://www.w3.org/2000/svg">
<path d="M2.88809 1.01074C1.51319 1.01074 0.614258 1.91357 0.614258 3.10021C0.614258 4.26064 1.48641 5.18921 2.83533 5.18921H2.86142C4.26321 5.18921 5.1356 4.26064 5.1356 3.10021C5.10939 1.91357 4.26321 1.01074 2.88809 1.01074Z" fill="white"/>
<path d="M0.852539 6.83691H4.87193V18.9294H0.852539V6.83691Z" fill="white"/>
<path d="M14.7375 6.55566C12.5692 6.55566 11.1152 8.59317 11.1152 8.59317V6.83948H7.0957V18.932H11.115V12.1791C11.115 11.8175 11.1412 11.4566 11.2474 11.1981C11.538 10.4762 12.1992 9.72831 13.3096 9.72831C14.7641 9.72831 15.3458 10.8372 15.3458 12.4629V18.932H19.3648V11.9984C19.3648 8.28407 17.3818 6.55566 14.7375 6.55566Z" fill="white"/>
</svg>
