<svg width="240" height="44" viewBox="0 0 240 44" fill="none" xmlns="http://www.w3.org/2000/svg">
<path d="M199.237 35.5287C200.917 32.5071 214.543 16.8129 235.73 27.1112C235.761 27.1421 235.761 27.1729 235.73 27.1729C234.952 27.2346 231.001 27.7896 226.988 31.6746C219.521 38.8896 209.161 38.4887 200.326 36.2996L199.237 35.5287Z" fill="#CEBF3B"/>
<path d="M221.699 27.8202C220.33 24.9219 214.108 4.84938 190.557 6.05188C190.526 6.05188 190.494 6.11355 190.526 6.11355C191.21 6.48355 194.632 8.54938 196.779 13.6677C200.761 23.1952 210.468 26.8952 219.459 28.3135L221.699 27.8202Z" fill="url(#paint0_linear_2001_3343)"/>
<path d="M220.517 27.7587C218.837 24.737 205.21 9.04288 184.023 19.3412C183.992 19.372 183.992 19.4029 184.023 19.4029C184.801 19.4645 188.752 20.0195 192.766 23.9045C200.232 31.1195 210.592 30.7187 219.428 28.5295L220.517 27.7587Z" fill="url(#paint1_linear_2001_3343)"/>
<path d="M197.868 15.9188C202.348 23.8121 211.183 27.0188 219.459 28.3446L221.699 27.8513C219.957 25.1379 210.561 15.8571 197.868 15.9188Z" fill="url(#paint2_linear_2001_3343)"/>
<path d="M220.61 27.5734C217.748 25.6309 199.361 17.3675 185.112 35.9909C185.081 36.0217 185.112 36.0525 185.143 36.0525C185.859 35.775 189.53 34.9117 195.005 36.1759C206.33 38.7967 214.761 33.7092 221.668 27.82L220.61 27.5734Z" fill="url(#paint3_linear_2001_3343)"/>
<path d="M196.188 26.6176C203.188 30.9959 213.392 31.3659 221.699 27.8509C221.699 27.8509 220.361 27.5118 220.237 27.3576C217.375 25.6618 206.984 21.3451 196.188 26.6176Z" fill="url(#paint4_linear_2001_3343)"/>
<path d="M206.361 24.0894C210.375 26.3402 217.001 27.6661 221.699 27.8202C221.699 27.8202 214.699 23.6886 206.361 24.0894Z" fill="url(#paint5_linear_2001_3343)"/>
<path opacity="0.21" d="M221.699 27.8201C216.441 32.3217 210.281 36.3301 202.659 36.8542C201.881 36.7001 199.268 35.5284 199.268 35.5284C200.481 33.3701 207.916 24.5826 219.925 23.7192C220.828 25.6617 221.388 27.1726 221.699 27.8201Z" fill="white"/>
<g clip-path="url(#clip0_2001_3343)">
<path d="M3.89062 24.5002C4.15241 28.1056 7.16298 29.7789 13.0953 29.7789C17.5644 29.7789 22.7674 29.1546 22.7674 24.6433C22.7674 22.005 21.0728 20.4998 15.8441 19.9594L12.2795 19.5893C10.059 19.3623 9.68035 18.8787 9.68035 18.1703C9.68035 16.665 11.6952 16.5538 13.0415 16.5538C14.5328 16.5538 16.2251 17.0079 16.5172 18.5676H22.1854C21.8348 15.7296 20.1402 13.4297 12.9247 13.4297C8.65891 13.4297 4.36512 14.4241 4.36512 18.5381C4.36512 21.4329 6.23503 22.4273 9.50739 22.8519L14.1822 23.4763C16.6645 23.8168 17.1039 24.1574 17.1039 25.0088C17.1039 26.1168 15.7319 26.6549 13.3945 26.6549C10.7345 26.6549 9.79956 25.8034 9.56582 24.498H3.89062V24.5002Z" fill="#231F20"/>
<path d="M27.026 13.9997H23.7817V17.3485H27.026V25.0407C27.026 27.7947 27.4935 29.5543 32.374 29.5543C33.5147 29.5543 35.4407 29.384 36.406 29.2705V25.9216C35.5879 25.9784 34.7979 26.0351 33.8933 26.0351C32.5493 26.0351 32.1683 25.6378 32.1683 24.4459V17.3508H36.3172V14.002H32.1683V9.28857H27.026V13.9997Z" fill="#231F20"/>
<path d="M38.33 29.2111H43.4722V22.6542C43.4722 19.7027 45.1365 17.9726 48.6426 17.9726C49.6056 17.9726 50.5405 18.1724 51.4755 18.4267V13.7451C50.8911 13.6316 50.1899 13.6021 49.6056 13.6021C46.6838 13.6021 45.223 14.6533 43.353 16.9804H43.2946V14.0016H38.3276V29.2134L38.33 29.2111Z" fill="#231F20"/>
<path fill-rule="evenodd" clip-rule="evenodd" d="M66.7805 23.0517C66.7805 25.6059 63.8868 26.8274 61.2876 26.8274C59.3592 26.8274 58.0433 26.06 58.0433 24.6978C58.0433 23.3355 58.9502 22.8542 60.7593 22.7111L63.7395 22.4569C64.7633 22.3706 65.8151 22.2593 66.7781 21.8052V23.054L66.7805 23.0517ZM58.5131 18.6539C59.2424 16.5538 60.383 16.3835 62.5731 16.3835C65.5533 16.3835 66.6052 16.9783 66.6052 18.1998C66.6052 19.4213 66.0792 19.6756 64.5015 19.7891L59.039 20.1569C55.9116 20.3567 52.5527 21.1514 52.5527 24.8385C52.5527 28.5257 55.416 29.7767 59.5065 29.7767C61.8135 29.7767 65.0882 29.2953 66.8412 27.5925C66.8693 28.1329 67.0165 28.671 67.1918 29.2091H72.3341C71.9835 28.4417 71.7498 27.4767 71.7498 26.144V18.5949C71.7498 15.7569 70.172 13.4297 62.8092 13.4297C58.6019 13.4297 54.1609 13.97 53.5461 18.6516H58.5131V18.6539Z" fill="#231F20"/>
<path d="M76.801 13.9997H73.5591V17.3485H76.801V25.0407C76.801 27.7947 77.2685 29.5543 82.149 29.5543C83.2897 29.5543 85.2157 29.384 86.181 29.2705V25.9216C85.3629 25.9784 84.5752 26.0351 83.6683 26.0351C82.3243 26.0351 81.9433 25.6378 81.9433 24.4459V17.3508H86.0922V14.002H81.9433V9.28857H76.801V13.9997Z" fill="#231F20"/>
<path d="M107.302 19.6185C106.339 14.5964 101.692 13.4316 97.7185 13.4316C91.5244 13.4316 87.3755 15.8723 87.3755 21.6051C87.3755 27.3379 91.3794 29.7786 97.2814 29.7786C102.393 29.7786 106.369 28.5594 107.302 23.1672H101.984C101.722 25.0698 99.9974 26.2618 97.7185 26.2618C94.5349 26.2618 92.6931 24.5862 92.6931 21.6074C92.6931 18.6286 94.5349 16.9531 97.7185 16.9531C99.7941 16.9531 101.372 17.6047 101.984 19.6208H107.302V19.6185Z" fill="#231F20"/>
<path fill-rule="evenodd" clip-rule="evenodd" d="M109.024 21.6051C109.024 27.3379 113.173 29.7786 119.367 29.7786C125.561 29.7786 129.71 27.3379 129.71 21.6051C129.71 15.8723 125.561 13.4316 119.367 13.4316C113.173 13.4316 109.024 15.8723 109.024 21.6051Z" fill="#CEBE3C"/>
<path d="M132.482 29.2111H137.625V22.6542C137.625 19.7027 139.289 17.9726 142.795 17.9726C143.758 17.9726 144.693 18.1724 145.628 18.4267V13.7451C145.043 13.6316 144.342 13.6021 143.758 13.6021C140.836 13.6021 139.375 14.6533 137.505 16.9804H137.447V14.0016H132.48V29.2134L132.482 29.2111Z" fill="#231F20"/>
<path fill-rule="evenodd" clip-rule="evenodd" d="M161.372 24.6702C160.643 25.9757 159.18 26.6568 157.107 26.6568C153.601 26.6568 152.081 24.4431 152.081 22.9969V22.9401H167.157V22.4861C167.157 16.7533 163.885 13.4316 157.107 13.4316C150.913 13.4316 146.764 15.8723 146.764 21.6051C146.764 27.3379 150.913 29.7786 157.107 29.7786C161.812 29.7786 165.376 28.2756 166.865 24.6702H161.372ZM152.081 19.9886V19.9318C152.081 19.5618 152.93 16.5557 156.99 16.5557C160.758 16.5557 161.84 19.1099 161.84 19.9318V19.9886H152.081Z" fill="#231F20"/>
<path d="M4.43984 37.8955H5.24624V34.751H6.68607V34.1675H3V34.751H4.43984V37.8955Z" fill="#231F20"/>
<path fill-rule="evenodd" clip-rule="evenodd" d="M7.88525 37.8953H8.69166V36.4241H10.0614C10.6527 36.4241 10.7275 36.801 10.7275 37.3323C10.7275 37.6047 10.7649 37.7909 10.8234 37.8953H11.6952C11.5386 37.691 11.5339 37.2732 11.5339 37.0961C11.5339 36.5694 11.4311 36.1834 10.9753 36.0881V36.0767C11.3352 35.9677 11.6087 35.6635 11.6087 35.1776C11.6087 34.5987 11.2908 34.165 10.3138 34.165H7.88525V37.8931V37.8953ZM8.69166 35.8383V34.7531H10.0847C10.5101 34.7531 10.7719 34.9052 10.7719 35.2912C10.7719 35.7089 10.5312 35.8383 10.0847 35.8383H8.69166Z" fill="#231F20"/>
<path fill-rule="evenodd" clip-rule="evenodd" d="M14.1423 36.3857L14.8084 34.8145L15.4652 36.3857H14.1423ZM12.6323 37.8955H13.5042L13.9015 36.9714H15.7083L16.1104 37.8955H17.0079L15.2993 34.1675H14.3433L12.6347 37.8955H12.6323Z" fill="#231F20"/>
<path d="M18.1582 37.8955H18.9342V35.0961H18.9436L21.2436 37.8955H22.1528V34.1675H21.3791V36.9646H21.3674L19.0838 34.1675H18.1582V37.8955Z" fill="#231F20"/>
<path d="M23.5409 35.2164C23.5409 36.7466 26.3691 35.9429 26.3691 36.8669C26.3691 37.2734 25.9133 37.4141 25.4225 37.4141C24.761 37.4141 24.3426 37.1803 24.3216 36.6876H23.4497C23.4614 37.4709 24.013 37.9976 25.3944 37.9976C26.2125 37.9976 27.2386 37.7479 27.2386 36.7875C27.2386 35.1959 24.38 36.036 24.38 35.1596C24.38 34.81 24.7353 34.6488 25.2729 34.6488C25.9437 34.6488 26.2125 34.9621 26.2406 35.2481H27.1124C27.0096 34.1674 25.8268 34.063 25.2355 34.063C24.3005 34.063 23.5432 34.3877 23.5432 35.2164H23.5409Z" fill="#231F20"/>
<path d="M28.5337 37.8955H31.6728V37.2779H29.3401V34.1675H28.5337V37.8955Z" fill="#231F20"/>
<path fill-rule="evenodd" clip-rule="evenodd" d="M33.9963 36.3857L34.6624 34.8145L35.3193 36.3857H33.9963ZM32.4863 37.8955H33.3582L33.7555 36.9714H35.5623L35.9644 37.8955H36.8619L35.1533 34.1675H34.1973L32.4887 37.8955H32.4863Z" fill="#231F20"/>
<path d="M38.7645 37.8955H39.5709V34.751H41.0108V34.1675H37.3247V34.751H38.7645V37.8955Z" fill="#231F20"/>
<path d="M42.21 37.8955H43.0164V34.1675H42.21V37.8955Z" fill="#231F20"/>
<path d="M44.6079 37.8955H45.3816V35.0961H45.3909L47.6933 37.8955H48.6002V34.1675H47.8265V36.9646H47.8148L45.5312 34.1675H44.6079V37.8955Z" fill="#231F20"/>
<path d="M54.2826 35.8479H52.3917V36.4336H53.4762C53.3477 37.0489 52.9714 37.4144 52.1486 37.4144C51.4708 37.4144 50.8163 37.0489 50.8163 36.0567C50.8163 35.2371 51.1973 34.6468 52.193 34.6468C52.7142 34.6468 53.1981 34.8602 53.343 35.3665H54.2149C54.1284 34.6354 53.3827 34.061 52.2164 34.061C50.6527 34.061 49.9795 34.9806 49.9795 36.0295C49.9795 37.0784 50.6129 37.9979 52.2374 37.9979C52.8405 37.9979 53.3874 37.7732 53.6983 37.4076L53.8105 37.8935H54.2826V35.8479Z" fill="#231F20"/>
<path d="M59.8198 37.8955H60.6263V36.4742L62.3022 34.1675H61.3181L60.2219 35.8272L59.1256 34.1675H58.1416L59.8198 36.4742V37.8955Z" fill="#231F20"/>
<path fill-rule="evenodd" clip-rule="evenodd" d="M65.5065 37.9999C67.1286 37.9999 67.7644 37.0804 67.7644 36.0314C67.7644 34.9825 67.1309 34.063 65.5065 34.063C63.882 34.063 63.2485 34.9825 63.2485 36.0314C63.2485 37.0804 63.882 37.9999 65.5065 37.9999ZM65.5065 37.4141C64.6042 37.4141 64.0877 36.8511 64.0877 36.0314C64.0877 35.2118 64.6042 34.6488 65.5065 34.6488C66.4087 34.6488 66.9253 35.2118 66.9253 36.0314C66.9253 36.8511 66.4087 37.4141 65.5065 37.4141Z" fill="#231F20"/>
<path d="M69.1084 36.2926C69.1084 36.9079 69.1294 37.9999 70.9853 37.9999C72.8412 37.9999 72.8669 36.9079 72.8669 36.2926V34.1675H72.0605V36.2722C72.0605 36.7898 72.0395 37.4164 70.9853 37.4164C69.9312 37.4164 69.9148 36.7898 69.9148 36.2722V34.1675H69.1084V36.2926Z" fill="#231F20"/>
<path fill-rule="evenodd" clip-rule="evenodd" d="M74.4238 37.8953H75.2302V36.4241H76.5999C77.1913 36.4241 77.2661 36.801 77.2661 37.3323C77.2661 37.6047 77.3035 37.7909 77.3619 37.8953H78.2338C78.0772 37.691 78.0725 37.2732 78.0725 37.0961C78.0725 36.5694 77.9697 36.1834 77.5139 36.0881V36.0767C77.8738 35.9677 78.1473 35.6635 78.1473 35.1776C78.1473 34.5987 77.8294 34.165 76.8524 34.165H74.4238V37.8931V37.8953ZM75.2302 35.8383V34.7531H76.6233C77.0487 34.7531 77.3105 34.9052 77.3105 35.2912C77.3105 35.7089 77.0674 35.8383 76.6233 35.8383H75.2302Z" fill="#231F20"/>
<path d="M83.1586 37.8955H84.0282L84.9912 35.0325H85.0005L85.9589 37.8955H86.8284L88.1186 34.1675H87.2795L86.3983 37.06H86.3889L85.4259 34.1675H84.5868L83.6308 37.06H83.6191L82.7543 34.1675H81.8848L83.1586 37.8955Z" fill="#231F20"/>
<path fill-rule="evenodd" clip-rule="evenodd" d="M91.3302 37.9999C92.9523 37.9999 93.5881 37.0804 93.5881 36.0314C93.5881 34.9825 92.9547 34.063 91.3302 34.063C89.7057 34.063 89.0723 34.9825 89.0723 36.0314C89.0723 37.0804 89.7057 37.9999 91.3302 37.9999ZM91.3302 37.4141C90.428 37.4141 89.9114 36.8511 89.9114 36.0314C89.9114 35.2118 90.428 34.6488 91.3302 34.6488C92.2324 34.6488 92.749 35.2118 92.749 36.0314C92.749 36.8511 92.2324 37.4141 91.3302 37.4141Z" fill="#231F20"/>
<path fill-rule="evenodd" clip-rule="evenodd" d="M94.9648 37.8953H95.7712V36.4241H97.141C97.7323 36.4241 97.8071 36.801 97.8071 37.3323C97.8071 37.6047 97.8445 37.7909 97.9029 37.8953H98.7748C98.6182 37.691 98.6135 37.2732 98.6135 37.0961C98.6135 36.5694 98.5107 36.1834 98.0549 36.0881V36.0767C98.4148 35.9677 98.6883 35.6635 98.6883 35.1776C98.6883 34.5987 98.3704 34.165 97.3934 34.165H94.9648V37.8931V37.8953ZM95.7712 35.8383V34.7531H97.1643C97.5897 34.7531 97.8515 34.9052 97.8515 35.2912C97.8515 35.7089 97.6108 35.8383 97.1643 35.8383H95.7712Z" fill="#231F20"/>
<path d="M100.151 37.8955H103.29V37.2779H100.958V34.1675H100.151V37.8955Z" fill="#231F20"/>
<path fill-rule="evenodd" clip-rule="evenodd" d="M105.35 34.7508H106.441C106.893 34.7508 107.683 34.8235 107.683 36.0359C107.683 37.1279 107.066 37.3096 106.483 37.3096H105.35V34.7508ZM104.543 37.8931H106.806C108.113 37.8931 108.489 36.8691 108.489 36.0654C108.489 35.0006 108.117 34.165 106.612 34.165H104.543V37.8931Z" fill="#231F20"/>
<path fill-rule="evenodd" clip-rule="evenodd" d="M171.063 13.4773H171.781L172.982 15.4048H173.845L172.543 13.4228C173.239 13.3456 173.754 13.0096 173.754 12.1922C173.754 11.2772 173.181 10.8958 172.059 10.8958H170.299V15.4071H171.061V13.4795L171.063 13.4773ZM171.063 12.8461V11.527H171.984C172.445 11.527 172.994 11.5928 172.994 12.1377C172.994 12.7916 172.489 12.8461 171.916 12.8461H171.063ZM176 13.0754C176 10.6233 174.093 9 171.895 9C169.698 9 167.768 10.6233 167.768 13.0754C167.768 15.3958 169.483 17.1508 171.895 17.1508C174.095 17.1508 176 15.5274 176 13.0754ZM175.102 13.0754C175.102 15.0688 173.688 16.4424 171.893 16.4424C169.897 16.4424 168.663 14.9281 168.663 13.0754C168.663 11.0933 170.077 9.70837 171.893 9.70837C173.709 9.70837 175.102 11.0911 175.102 13.0754Z" fill="#231F20"/>
</g>
<defs>
<linearGradient id="paint0_linear_2001_3343" x1="194.25" y1="9.43361" x2="221.882" y2="26.033" gradientUnits="userSpaceOnUse">
<stop offset="0.0214141" stop-color="#E3D86B"/>
<stop offset="1" stop-color="#D9CB66"/>
</linearGradient>
<linearGradient id="paint1_linear_2001_3343" x1="224.457" y1="29.9983" x2="194.87" y2="19.878" gradientUnits="userSpaceOnUse">
<stop offset="0.5469" stop-color="#3296BF"/>
<stop offset="0.9559" stop-color="#52CBFC"/>
</linearGradient>
<linearGradient id="paint2_linear_2001_3343" x1="194.503" y1="14.0049" x2="220.533" y2="28.3001" gradientUnits="userSpaceOnUse">
<stop offset="0.0214141" stop-color="#E3D86B"/>
<stop offset="1" stop-color="#FCED81"/>
</linearGradient>
<linearGradient id="paint3_linear_2001_3343" x1="175.724" y1="25.9086" x2="218.433" y2="34.2131" gradientUnits="userSpaceOnUse">
<stop offset="0.4178" stop-color="#756E67"/>
<stop offset="1" stop-color="#5F5C57"/>
</linearGradient>
<linearGradient id="paint4_linear_2001_3343" x1="183.746" y1="15.3075" x2="235.211" y2="40.2645" gradientUnits="userSpaceOnUse">
<stop offset="0.2124" stop-color="#63B0CF"/>
<stop offset="1" stop-color="#605399"/>
</linearGradient>
<linearGradient id="paint5_linear_2001_3343" x1="195.134" y1="20.9518" x2="222.374" y2="28.1373" gradientUnits="userSpaceOnUse">
<stop offset="0.2124" stop-color="#63B0CF"/>
<stop offset="0.9233" stop-color="#535D8F"/>
</linearGradient>
<clipPath id="clip0_2001_3343">
<rect width="173" height="29" fill="white" transform="translate(3 9)"/>
</clipPath>
</defs>
</svg>
