<svg width="24" height="23" viewBox="0 0 24 23" fill="none" xmlns="http://www.w3.org/2000/svg">
<path d="M12 0.25C5.79699 0.25 0.75 5.29699 0.75 11.5C0.75 17.703 5.79699 22.75 12 22.75C18.203 22.75 23.25 17.703 23.25 11.5C23.25 5.29699 18.203 0.25 12 0.25ZM18.2876 8.53947L11.0977 15.6729C10.6748 16.0959 9.99812 16.1241 9.54699 15.7011L5.7406 12.2331C5.28947 11.8102 5.26128 11.1053 5.65601 10.6541C6.07895 10.203 6.78383 10.1748 7.23496 10.5977L10.2519 13.3609L16.6805 6.93233C17.1316 6.4812 17.8365 6.4812 18.2876 6.93233C18.7387 7.38346 18.7387 8.08835 18.2876 8.53947Z" fill="#94B945"/>
<path d="M18.2876 8.53947L11.0977 15.6729C10.6748 16.0959 9.99812 16.1241 9.54699 15.7011L5.7406 12.2331C5.28947 11.8102 5.26128 11.1053 5.65601 10.6541C6.07895 10.203 6.78383 10.1748 7.23496 10.5977L10.2519 13.3609L16.6805 6.93233C17.1316 6.4812 17.8365 6.4812 18.2876 6.93233C18.7387 7.38346 18.7387 8.08835 18.2876 8.53947Z" fill="white"/>
</svg>
