<svg width="30" height="30" viewBox="0 0 30 30" fill="none" xmlns="http://www.w3.org/2000/svg">
<rect width="30" height="30" rx="15" fill="#94B945"/>
<path d="M23.8511 9.87793L18.6953 15.0005L23.8511 20.123C23.9443 19.9282 24.0008 19.7129 24.0008 19.4829V10.5181C24.0008 10.2881 23.9443 10.0727 23.8511 9.87793Z" fill="white"/>
<path d="M22.5073 9.02344H8.49559C8.26559 9.02344 8.05027 9.07998 7.85547 9.17318L14.4451 15.7296C15.0277 16.3122 15.9752 16.3122 16.5578 15.7296L23.1474 9.17318C22.9526 9.07998 22.7373 9.02344 22.5073 9.02344Z" fill="white"/>
<path d="M7.14975 9.87793C7.05654 10.0727 7 10.2881 7 10.5181V19.4829C7 19.7129 7.05654 19.9282 7.14975 20.123L12.3055 15.0005L7.14975 9.87793Z" fill="white"/>
<path d="M17.9917 15.7041L17.2621 16.4337C16.2913 17.4045 14.7116 17.4045 13.7408 16.4337L13.0112 15.7041L7.85547 20.8266C8.05027 20.9198 8.26559 20.9764 8.49559 20.9764H22.5073C22.7373 20.9764 22.9526 20.9198 23.1474 20.8266L17.9917 15.7041Z" fill="white"/>
</svg>
