<svg width="30" height="30" viewBox="0 0 30 30" fill="none" xmlns="http://www.w3.org/2000/svg">
<rect width="30" height="30" rx="15" fill="#94B945"/>
<g clip-path="url(#clip0_749_3327)">
<path d="M15.5 6.5C13.8099 6.50224 12.1897 7.17461 10.9947 8.36967C9.79961 9.56473 9.12724 11.1849 9.125 12.875C9.125 17.4517 15.0644 23.1839 15.3167 23.4256C15.3658 23.4733 15.4316 23.5 15.5 23.5C15.5684 23.5 15.6342 23.4733 15.6833 23.4256C15.9356 23.1839 21.875 17.4517 21.875 12.875C21.8728 11.1849 21.2004 9.56473 20.0053 8.36967C18.8103 7.17461 17.1901 6.50224 15.5 6.5ZM15.5 15.7969C14.9221 15.7969 14.3572 15.6255 13.8767 15.3045C13.3962 14.9834 13.0217 14.5271 12.8005 13.9932C12.5794 13.4593 12.5215 12.8718 12.6343 12.305C12.747 11.7382 13.0253 11.2176 13.4339 10.8089C13.8426 10.4003 14.3632 10.122 14.93 10.0093C15.4968 9.89653 16.0843 9.95439 16.6182 10.1755C17.1521 10.3967 17.6084 10.7712 17.9295 11.2517C18.2505 11.7322 18.4219 12.2971 18.4219 12.875C18.4214 13.6498 18.1134 14.3927 17.5656 14.9406C17.0177 15.4884 16.2748 15.7964 15.5 15.7969Z" fill="white"/>
</g>
<defs>
<clipPath id="clip0_749_3327">
<rect width="17" height="17" fill="white" transform="translate(7 6.5)"/>
</clipPath>
</defs>
</svg>
