<svg width="41" height="40" viewBox="0 0 41 40" fill="none" xmlns="http://www.w3.org/2000/svg">
<g clip-path="url(#clip0_749_3388)">
<path d="M33 40H8C3.85754 40 0.5 36.6425 0.5 32.5V7.5C0.5 3.35754 3.85754 0 8 0H33C37.1425 0 40.5 3.35754 40.5 7.5V32.5C40.5 36.6425 37.1425 40 33 40Z" fill="#94B945"/>
<path d="M20.5 10C14.9864 10 10.5 14.4864 10.5 20C10.5 25.5136 14.9864 30 20.5 30C26.0136 30 30.5 25.5136 30.5 20C30.5 14.4864 26.0136 10 20.5 10ZM24.875 20.8337H21.3337V24.375C21.3337 24.8349 20.9599 25.2087 20.5 25.2087C20.0401 25.2087 19.6663 24.8349 19.6663 24.375V20.8337H16.125C15.6651 20.8337 15.2913 20.4599 15.2913 20C15.2913 19.5401 15.6651 19.1663 16.125 19.1663H19.6663V15.625C19.6663 15.1651 20.0401 14.7913 20.5 14.7913C20.9599 14.7913 21.3337 15.1651 21.3337 15.625V19.1663H24.875C25.3349 19.1663 25.7087 19.5401 25.7087 20C25.7087 20.4599 25.3349 20.8337 24.875 20.8337Z" fill="white"/>
</g>
<defs>
<clipPath id="clip0_749_3388">
<rect width="40" height="40" fill="white" transform="translate(0.5)"/>
</clipPath>
</defs>
</svg>
