<svg width="30" height="30" viewBox="0 0 30 30" fill="none" xmlns="http://www.w3.org/2000/svg">
<rect width="30" height="30" rx="15" fill="#94B945"/>
<g clip-path="url(#clip0_749_3335)">
<path d="M21.6474 18.3321C20.6204 17.4537 19.5782 16.9217 18.5639 17.7987L17.9582 18.3288C17.515 18.7136 16.691 20.5114 13.5053 16.8467C10.3203 13.1867 12.2156 12.6168 12.6595 12.2353L13.2685 11.7046C14.2775 10.8256 13.8967 9.71898 13.169 8.5799L12.7298 7.88995C11.9987 6.75352 11.2026 6.00718 10.1909 6.88488L9.64424 7.36254C9.1971 7.68827 7.94723 8.74708 7.64405 10.7586C7.27917 13.1721 8.43019 15.9358 11.0673 18.9683C13.701 22.0021 16.2797 23.526 18.7224 23.4994C20.7525 23.4775 21.9784 22.3882 22.3619 21.9922L22.9105 21.5138C23.9196 20.6368 23.2927 19.7438 22.265 18.8635L21.6474 18.3321Z" fill="white"/>
</g>
<defs>
<clipPath id="clip0_749_3335">
<rect width="17" height="17" fill="white" transform="translate(7 6.5)"/>
</clipPath>
</defs>
</svg>
