<svg width="60" height="60" viewBox="0 0 60 60" fill="none" xmlns="http://www.w3.org/2000/svg">
<circle cx="30" cy="30" r="30" fill="#6CDC2D"/>
<g clip-path="url(#clip0_333_3358)">
<path d="M43.2378 36.5492L39.3303 32.6417C37.9348 31.2462 35.5624 31.8044 35.0042 33.6186C34.5855 34.8746 33.19 35.5724 31.934 35.2932C29.143 34.5954 25.375 30.9671 24.6773 28.0364C24.2586 26.7804 25.0959 25.3849 26.3519 24.9663C28.1661 24.4081 28.7243 22.0357 27.3288 20.6401L23.4213 16.7327C22.3049 15.7558 20.6302 15.7558 19.6534 16.7327L17.0019 19.3842C14.3503 22.1752 17.281 29.5715 23.8399 36.1305C30.3989 42.6895 37.7952 45.7597 40.5863 42.9686L43.2378 40.3171C44.2147 39.2007 44.2147 37.526 43.2378 36.5492Z" fill="white"/>
</g>
<defs>
<clipPath id="clip0_333_3358">
<rect width="28" height="28" fill="white" transform="translate(16 16)"/>
</clipPath>
</defs>
</svg>
