<svg width="62" height="39" viewBox="0 0 62 39" fill="none" xmlns="http://www.w3.org/2000/svg">
<path d="M17.9688 35.6298C19.9499 32.0665 36.0188 13.5596 61.0027 25.7036C61.0393 25.74 61.0393 25.7764 61.0027 25.7764C60.0855 25.8491 55.4262 26.5035 50.6936 31.0848C41.8887 39.593 29.6719 39.1203 19.2528 36.5388L17.9688 35.6298Z" fill="#CEBF3B"/>
<path d="M44.4553 26.5399C42.8411 23.1221 35.5037 -0.547884 7.73157 0.870136C7.69488 0.870136 7.6582 0.942855 7.69488 0.942855C8.502 1.37917 12.5376 3.81525 15.069 9.85093C19.7649 21.086 31.2113 25.4492 41.8138 27.1217L44.4553 26.5399Z" fill="url(#paint0_linear_2051_1228)"/>
<path d="M43.0614 26.4672C41.0803 22.9039 25.0114 4.39697 0.0275153 16.541C-0.00917176 16.5774 -0.00917176 16.6138 0.0275153 16.6138C0.944692 16.6865 5.60395 17.3409 10.3366 21.9222C19.1415 30.4304 31.3583 29.9577 41.7774 27.3762L43.0614 26.4672Z" fill="url(#paint1_linear_2051_1228)"/>
<path d="M16.3516 12.5052C21.6345 21.8132 32.0536 25.5946 41.8124 27.1581L44.4538 26.5763C42.3994 23.3767 31.3199 12.4325 16.3516 12.5052Z" fill="url(#paint2_linear_2051_1228)"/>
<path d="M43.172 26.249C39.7968 23.9584 18.1147 14.214 1.31207 36.1752C1.27538 36.2115 1.31207 36.2479 1.34876 36.2479C2.19256 35.9207 6.52163 34.9026 12.9786 36.3933C26.3326 39.4839 36.2748 33.4846 44.4194 26.5399L43.172 26.249Z" fill="url(#paint3_linear_2051_1228)"/>
<path d="M14.373 25.1219C22.6276 30.285 34.661 30.7213 44.4564 26.5763C44.4564 26.5763 42.8789 26.1764 42.7321 25.9946C39.3569 23.9948 27.1035 18.9045 14.373 25.1219Z" fill="url(#paint4_linear_2051_1228)"/>
<path d="M26.3672 22.1405C31.0998 24.7948 38.9142 26.3582 44.4539 26.54C44.4539 26.54 36.1993 21.6678 26.3672 22.1405Z" fill="url(#paint5_linear_2051_1228)"/>
<path opacity="0.21" d="M44.4553 26.5399C38.2552 31.8483 30.9911 36.5751 22.0028 37.1932C21.0856 37.0114 18.0039 35.6297 18.0039 35.6297C19.4347 33.0846 28.2029 22.7221 42.3641 21.704C43.428 23.9947 44.0884 25.7763 44.4553 26.5399Z" fill="white"/>
<defs>
<linearGradient id="paint0_linear_2051_1228" x1="12.0865" y1="4.85797" x2="44.6715" y2="24.4324" gradientUnits="userSpaceOnUse">
<stop offset="0.0214141" stop-color="#E3D86B"/>
<stop offset="1" stop-color="#D9CB66"/>
</linearGradient>
<linearGradient id="paint1_linear_2051_1228" x1="47.7077" y1="29.1081" x2="12.8183" y2="17.174" gradientUnits="userSpaceOnUse">
<stop offset="0.5469" stop-color="#3296BF"/>
<stop offset="0.9559" stop-color="#52CBFC"/>
</linearGradient>
<linearGradient id="paint2_linear_2051_1228" x1="12.3837" y1="10.2483" x2="43.079" y2="27.1055" gradientUnits="userSpaceOnUse">
<stop offset="0.0214141" stop-color="#E3D86B"/>
<stop offset="1" stop-color="#FCED81"/>
</linearGradient>
<linearGradient id="paint3_linear_2051_1228" x1="-9.75814" y1="24.2859" x2="40.6049" y2="34.0787" gradientUnits="userSpaceOnUse">
<stop offset="0.4178" stop-color="#756E67"/>
<stop offset="1" stop-color="#5F5C57"/>
</linearGradient>
<linearGradient id="paint4_linear_2051_1228" x1="-0.298508" y1="11.7847" x2="60.3901" y2="41.2147" gradientUnits="userSpaceOnUse">
<stop offset="0.2124" stop-color="#63B0CF"/>
<stop offset="1" stop-color="#605399"/>
</linearGradient>
<linearGradient id="paint5_linear_2051_1228" x1="13.128" y1="18.4406" x2="45.2501" y2="26.9139" gradientUnits="userSpaceOnUse">
<stop offset="0.2124" stop-color="#63B0CF"/>
<stop offset="0.9233" stop-color="#535D8F"/>
</linearGradient>
</defs>
</svg>
